<svg class="svg-icon" style="width: 15.03125em;height: 15em;vertical-align: middle;fill: #f5de19;overflow: hidden;" viewBox="0 0 1056 1024" version="1.1" xmlns="http://www.w3.org/2000/svg"><path d="M128 416V224c21.216-72 186.336-128 384-128s362.784 56 384 128v192l64 32v288h-64v64c-21.216 72-186.336 128-384 128S149.216 872 128 800v-64H64v-288l64-32z m736 32V297.632C804.704 348.48 669.44 384 512 384S219.296 348.48 160 297.632V448h704z m-38.112 105.216c-11.392 0-21.696 2.528-30.912 7.552a51.808 51.808 0 0 0-21.376 21.888 62.848 62.848 0 0 0-7.552 29.632c0 13.344 2.528 24.64 7.552 33.952 5.024 9.28 12.384 16.352 22.048 21.152 9.632 4.8 19.808 7.232 30.432 7.232 14.816 0 27.456-4.288 37.92-12.832v-96.064c-10.4-8.32-23.104-12.48-38.112-12.48zM864 736H160l1.024 54.944C176.832 844.576 329.024 896 512 896s335.168-51.424 350.976-105.056L864 736zM512 352c195.456 0 352-58.72 352-112S707.456 128 512 128 160 186.72 160 240 316.544 352 512 352zM175.872 672h30.08v-126.208L237.632 672h31.2l31.84-126.208V672h30.08v-160.32H282.144l-28.8 109.344-29.056-109.376H175.872V672z m179.68-59.712c0 13.344 2.528 24.64 7.552 33.952 5.024 9.28 12.384 16.352 22.048 21.152 9.664 4.8 19.84 7.232 30.464 7.232 17.216 0 31.488-5.76 42.816-17.344 11.328-11.52 16.992-26.112 16.992-43.68 0-17.44-5.6-31.84-16.832-43.264-11.2-11.424-25.6-17.12-43.2-17.12-11.392 0-21.664 2.528-30.912 7.552a51.808 51.808 0 0 0-21.376 21.888 62.848 62.848 0 0 0-7.552 29.632z m31.52 1.632c0-11.52 2.72-20.352 8.192-26.464a26.048 26.048 0 0 1 20.224-9.184c8.032 0 14.752 3.072 20.192 9.184 5.44 6.112 8.16 14.88 8.16 26.24 0 11.68-2.72 20.576-8.16 26.688a25.92 25.92 0 0 1-20.16 9.184 26.048 26.048 0 0 1-20.256-9.184c-5.44-6.112-8.192-14.944-8.192-26.464zM605.12 672v-72.192a96 96 0 0 0-1.696-20.672 33.888 33.888 0 0 0-6.016-12.896 31.168 31.168 0 0 0-12.736-9.344 46.112 46.112 0 0 0-18.592-3.68c-15.36 0-28.16 6.56-38.272 19.68v-17.056h-28.544V672h30.72v-52.608c0-12.992 0.768-21.888 2.336-26.688a22.048 22.048 0 0 1 8.704-11.584 24.64 24.64 0 0 1 14.336-4.384 17.056 17.056 0 0 1 17.056 11.648c1.312 3.68 1.984 11.808 1.984 24.32V672h30.72z m28.32 7.68a76.288 76.288 0 0 0-0.096 3.68c0 10.368 4.128 18.912 12.352 25.664 8.256 6.72 22.208 10.112 41.92 10.112 10.4 0 19.04-1.088 25.856-3.264 6.816-2.208 12.256-5.216 16.32-9.088a38.08 38.08 0 0 0 9.536-16c2.24-6.752 3.392-16.992 3.392-30.72V555.84h-28.768v16.32c-9.344-12.64-21.184-18.944-35.52-18.944-13.952 0-25.6 5.12-34.976 15.424-9.376 10.272-14.08 25.152-14.08 44.64 0 15.52 3.616 28.48 10.752 38.912 9.12 13.216 21.44 19.808 37.088 19.808 13.984 0 25.6-6.272 34.752-18.816v16.96c0 6.848-0.448 11.552-1.408 14.08a14.88 14.88 0 0 1-6.112 7.776c-4.032 2.432-10.048 3.616-18.048 3.616-6.272 0-10.88-1.088-13.792-3.264-2.112-1.536-3.456-4.352-4.032-8.416l-35.136-4.288z m27.456-68.16c0-11.744 2.4-20.48 7.168-26.208a22.688 22.688 0 0 1 18.24-8.576c7.552 0 13.824 2.912 18.784 8.736 4.96 5.856 7.456 14.784 7.456 26.816 0 11.52-2.592 20.224-7.776 26.08a24.416 24.416 0 0 1-19.04 8.8 22.144 22.144 0 0 1-17.664-8.576c-4.8-5.76-7.168-14.752-7.168-27.072z m136.64 2.4c0-11.52 2.72-20.352 8.192-26.464a26.048 26.048 0 0 1 20.224-9.184c8 0 14.72 3.072 20.16 9.184 5.44 6.112 8.16 14.88 8.16 26.24 0 11.68-2.72 20.576-8.128 26.688a25.92 25.92 0 0 1-20.192 9.184 26.048 26.048 0 0 1-20.224-9.184c-5.472-6.112-8.224-14.944-8.224-26.464z"  /></svg>